<svg data-v-216c6138="" id="dashboard" xmlns="http://www.w3.org/2000/svg" width="16" height="16" viewBox="0 0 25 25" fill="rgba(74,90,99, 1)" class="fill-current text-gray-900"><path data-v-216c6138="" id="Path_2022" data-name="Path 2022" d="M9.635,0H1.823A1.825,1.825,0,0,0,0,1.823V6.51A1.825,1.825,0,0,0,1.823,8.333H9.635A1.825,1.825,0,0,0,11.458,6.51V1.823A1.825,1.825,0,0,0,9.635,0Zm0,0"></path><path data-v-216c6138="" id="Path_2023" data-name="Path 2023" d="M9.635,213.332H1.823A1.825,1.825,0,0,0,0,215.155v10.938a1.825,1.825,0,0,0,1.823,1.823H9.635a1.825,1.825,0,0,0,1.823-1.823V215.155A1.825,1.825,0,0,0,9.635,213.332Zm0,0" transform="translate(0 -202.915)"></path><path data-v-216c6138="" id="Path_2024" data-name="Path 2024" d="M286.968,341.332h-7.812a1.825,1.825,0,0,0-1.823,1.823v4.688a1.825,1.825,0,0,0,1.823,1.823h7.813a1.825,1.825,0,0,0,1.823-1.823v-4.687A1.825,1.825,0,0,0,286.968,341.332Zm0,0" transform="translate(-263.79 -324.665)"></path><path data-v-216c6138="" id="Path_2025" data-name="Path 2025" d="M286.968,0h-7.812a1.825,1.825,0,0,0-1.823,1.823V12.76a1.825,1.825,0,0,0,1.823,1.823h7.813a1.825,1.825,0,0,0,1.823-1.823V1.823A1.825,1.825,0,0,0,286.968,0Zm0,0" transform="translate(-263.79)" path></svg>