<svg data-v-252e6f35="" xmlns="http://www.w3.org/2000/svg" width="20" height="20" viewBox="0 0 24.505 30" fill="rgba(206,206,206, 1)" class="fill-current text-gray-500"><path data-v-252e6f35="" id="Union_1" data-name="Union 1" d="M23.83,30H.675A.646.646,0,0,1,0,29.368V17.342a.644.644,0,0,1,.675-.624h1.08V15.591a.617.617,0,0,1,.263-.508.781.781,0,0,1,.589-.116l1.89.349A4.358,4.358,0,0,1,9,11.345h6.555a4.359,4.359,0,0,1,4.5,3.972l1.849-.349a.783.783,0,0,1,.6.116.622.622,0,0,1,.251.508v1.128H23.83a.648.648,0,0,1,.675.661v12A.646.646,0,0,1,23.86,30ZM12.945,17.887V28.635l8.407-1.5V16.384ZM3.2,27.131l8.407,1.5V17.872L3.2,16.368Zm11.173-1.094a.625.625,0,0,1,.545-.752l4.254-.793a.669.669,0,0,1,.8.508.624.624,0,0,1-.549.751l-4.254.782h-.123l-.056,0A.633.633,0,0,1,14.368,26.038Zm-4.862.5H9.383l-4.254-.782a.623.623,0,0,1-.549-.736.65.65,0,0,1,.8-.508l4.253.767a.613.613,0,0,1,.549.752.636.636,0,0,1-.623.51Zm4.862-3.48a.624.624,0,0,1,.545-.752l4.254-.789a.669.669,0,0,1,.8.508.628.628,0,0,1-.549.752l-4.254.778h-.123l-.056,0A.632.632,0,0,1,14.368,23.054Zm-4.861.5H9.383l-4.254-.778a.632.632,0,0,1-.549-.741.65.65,0,0,1,.8-.507l4.253.766a.614.614,0,0,1,.549.752.635.635,0,0,1-.621.509Zm0-2.992H9.383L5.128,19.78a.632.632,0,0,1-.549-.74.651.651,0,0,1,.8-.508l4.253.767a.613.613,0,0,1,.549.751.635.635,0,0,1-.622.51Zm4.861-.5a.625.625,0,0,1,.545-.752l4.254-.788a.669.669,0,0,1,.8.507.628.628,0,0,1-.549.752l-4.254.778h-.151A.669.669,0,0,1,14.368,20.063Zm-7.57-15A5.281,5.281,0,0,1,12.273,0a5.281,5.281,0,0,1,5.476,5.063,5.281,5.281,0,0,1-5.476,5.062A5.281,5.281,0,0,1,6.8,5.063Z"></path></svg>