<svg data-v-252e6f35="" xmlns="http://www.w3.org/2000/svg" width="20" height="20" viewBox="0 0 30 24.383" fill="rgba(206,206,206, 1)" class="fill-current text-gray-500"><path data-v-252e6f35="" id="Union_2" data-name="Union 2" d="M7.488,24.383V22.238H22.5v2.145ZM0,21.4V0H30V21.4Zm12.375-4.9,1.08,1.113,4.1-4.124,2.318,2.328,4.631-4.656v1.792h1.56l-.018-4.367h-4.5V10h1.9l-3.559,3.595L17.562,11.3ZM9.6,13.213a5.508,5.508,0,0,0,1.736-2.372H7.875A5.463,5.463,0,0,0,9.6,13.213Zm.93-.007a4.429,4.429,0,0,0,3.15-2.365H12A5.815,5.815,0,0,1,10.53,13.206Zm-1.845,0a5.741,5.741,0,0,1-1.47-2.365H5.531A4.425,4.425,0,0,0,8.685,13.206Zm3.678-4.431a5.026,5.026,0,0,1-.191,1.5h1.77a3.685,3.685,0,0,0,.262-1.5,4.148,4.148,0,0,0-.094-.888H12.292A5.981,5.981,0,0,1,12.363,8.775Zm-4.912,0a4.506,4.506,0,0,0,.214,1.5h3.87a4.485,4.485,0,0,0,.217-1.5,5.56,5.56,0,0,0-.094-.888H7.534A5.162,5.162,0,0,0,7.451,8.775Zm-2.456,0a3.619,3.619,0,0,0,.255,1.5H7.031a4.94,4.94,0,0,1-.194-1.5,5.538,5.538,0,0,1,.075-.888H5.092A4.21,4.21,0,0,0,4.995,8.775Zm2.67-1.582h3.874a6.124,6.124,0,0,0-1.939-3A6.109,6.109,0,0,0,7.665,7.193Zm4.507-.011h1.77a4.529,4.529,0,0,0-3.425-2.976A6.509,6.509,0,0,1,12.173,7.182ZM5.25,7.17H7.031a6.455,6.455,0,0,1,1.64-2.962A4.522,4.522,0,0,0,5.25,7.17Z"></path></svg>